<svg xmlns="http://www.w3.org/2000/svg" width="1024" height="1024" viewBox="0 0 1024 1024" version="1.1">
	<path d="M 504.951 87.485 C 502.449 88.287, 499.484 89.969, 498.361 91.222 C 497.239 92.475, 492.598 100.475, 488.049 109 C 472.406 138.312, 465.740 149.886, 464.122 150.541 C 460.658 151.944, 423.497 160, 420.488 160 C 416.909 160, 416.362 159.604, 375.092 127.192 C 367.874 121.523, 360.599 116.407, 358.925 115.824 C 352.555 113.603, 339.401 118.390, 336.510 123.980 C 335.506 125.921, 333.741 138.481, 331.416 160.225 C 328.616 186.412, 327.500 193.895, 326.179 195.356 C 325.256 196.377, 320.900 199.738, 316.500 202.824 C 312.100 205.910, 304.974 211.038, 300.663 214.218 C 295.174 218.268, 291.918 220, 289.793 220 C 286.764 220, 275.543 217.197, 241.400 207.912 C 221.612 202.531, 218.983 202.421, 213.189 206.732 C 208.240 210.413, 203.054 217.985, 203.025 221.570 C 203.011 223.258, 207.329 238.108, 212.620 254.570 C 217.911 271.031, 222.242 285.507, 222.245 286.738 C 222.248 287.969, 219.208 293.560, 215.490 299.163 C 211.772 304.765, 206.323 313.081, 203.380 317.641 C 200.438 322.202, 197.002 326.608, 195.745 327.431 C 193.228 329.081, 183.066 330.159, 148.225 332.476 C 135.974 333.290, 125.125 334.398, 124.115 334.938 C 121.881 336.134, 118.248 344.316, 116.723 351.583 C 115.784 356.063, 115.861 357.474, 117.194 360.219 C 118.701 363.321, 140.361 391.699, 149.465 402.500 C 151.784 405.250, 154.913 409.376, 156.420 411.669 L 159.159 415.839 155.057 438.169 C 152.485 452.169, 150.299 461.433, 149.198 463 C 148.058 464.623, 137.633 470.448, 119.487 479.600 C 88.621 495.170, 88.913 494.936, 87.079 505.465 C 85.807 512.770, 87.508 520.253, 91.232 523.742 C 92.479 524.911, 105.875 531.927, 121 539.334 C 136.967 547.153, 149.005 553.644, 149.704 554.813 C 150.820 556.678, 153.459 569.604, 157.528 593.134 C 158.835 600.687, 158.941 603.242, 158.022 604.960 C 157.377 606.165, 148.692 617.580, 138.723 630.326 C 116.064 659.296, 116.234 659.001, 117.865 666.288 C 118.553 669.361, 120.327 674.266, 121.808 677.187 C 123.940 681.395, 125.228 682.734, 128 683.628 C 129.925 684.248, 145.152 685.736, 161.838 686.936 C 178.523 688.135, 193.210 689.510, 194.474 689.990 C 196.947 690.930, 222.058 726.950, 222.761 730.564 C 223.166 732.649, 221.625 738.059, 209.547 776.954 C 205.883 788.753, 203.122 799.348, 203.410 800.498 C 204.351 804.247, 210.987 811.715, 215.509 814.114 L 219.932 816.460 227.216 814.594 C 231.222 813.568, 245.732 809.189, 259.460 804.864 C 273.188 800.539, 285.405 797, 286.608 797 C 287.811 797, 291.879 799.381, 295.648 802.290 C 299.416 805.200, 307.758 811.336, 314.185 815.926 C 321.295 821.004, 326.280 825.294, 326.919 826.885 C 327.496 828.323, 329.133 839.850, 330.556 852.500 C 334.302 885.807, 335.483 893.563, 337.209 896.197 C 338.056 897.489, 341.278 899.825, 344.369 901.390 C 349.212 903.840, 350.872 904.177, 356.358 903.828 C 363.566 903.369, 361.305 904.870, 396.308 877.311 C 406.313 869.432, 415.625 862.688, 417 862.322 C 419.868 861.559, 462.126 869.623, 464.458 871.377 C 465.279 871.995, 472.750 885.100, 481.062 900.500 C 489.374 915.900, 496.922 929.351, 497.837 930.391 C 500.348 933.247, 507.001 935.953, 511.571 935.978 C 514.067 935.992, 517.739 934.936, 521.064 933.250 L 526.486 930.500 537.993 908.981 C 557.078 873.290, 557.844 872.010, 560.800 870.884 C 564.829 869.349, 602.484 862, 606.319 862 C 608.623 862, 610.844 863.016, 613.570 865.316 C 621.345 871.877, 659.708 901.773, 661.765 902.874 C 667.345 905.861, 681.511 902.513, 686.466 897.037 C 688.803 894.456, 689.430 890.763, 692.998 858.621 C 694.654 843.704, 696.448 829.900, 696.986 827.945 C 697.829 824.878, 700.364 822.615, 715.465 811.445 C 725.091 804.325, 734.101 798.075, 735.488 797.555 C 737.487 796.807, 741.072 797.606, 752.755 801.405 C 775.413 808.774, 796.113 814.992, 800.122 815.634 C 805.156 816.441, 809.955 813.923, 816.007 807.302 C 819.726 803.233, 821 801.056, 821 798.770 C 821 797.082, 816.707 781.445, 811.460 764.021 C 803.918 738.976, 802.114 731.834, 802.847 729.921 C 803.357 728.589, 806.370 723.900, 809.542 719.500 C 812.715 715.100, 818.402 706.897, 822.180 701.272 C 825.959 695.646, 829.927 690.574, 830.999 690 C 832.071 689.427, 840.047 688.525, 848.724 687.997 C 879.959 686.096, 894.554 684.750, 897.629 683.488 C 901.150 682.042, 905.180 674.704, 907.158 666.137 C 908.644 659.697, 908.692 659.775, 885.621 630.612 C 875.565 617.900, 866.848 606.586, 866.251 605.470 C 864.597 602.377, 872.454 557.374, 875.287 553.714 C 875.954 552.852, 889.231 545.794, 904.792 538.029 C 938.414 521.250, 937.301 522.286, 936.763 508.262 C 936.485 501.023, 935.978 498.427, 934.419 496.262 C 933.036 494.342, 924.012 489.234, 904.804 479.500 C 889.609 471.800, 876.507 464.919, 875.687 464.209 C 874.867 463.499, 873.933 461.868, 873.610 460.584 C 871.927 453.877, 866 419.677, 866 416.671 C 866 413.652, 868.542 409.954, 884.793 389.340 C 910.091 357.247, 908.366 359.971, 907.744 353.109 C 907.167 346.756, 903.815 338.047, 900.944 335.450 C 899.430 334.079, 895.113 333.502, 878.287 332.419 C 848.258 330.487, 831.753 328.935, 829.733 327.856 C 827.028 326.410, 802 288.378, 802 285.713 C 802 284.435, 806.499 269.334, 811.998 252.157 C 821.728 221.760, 821.956 220.831, 820.543 217.450 C 818.469 212.486, 809.657 204.346, 805.515 203.569 C 802.416 202.987, 775.423 209.574, 746.503 217.969 C 742.655 219.086, 738.147 220, 736.486 220 C 733.648 220, 725.166 214.546, 703.266 198.638 C 697.172 194.211, 696.760 193.079, 695.015 176 C 691.800 144.535, 689.076 124.765, 687.656 122.597 C 684.539 117.840, 671.847 113.812, 666.190 115.784 C 664.580 116.345, 654.541 123.733, 643.881 132.202 C 606.708 161.733, 608.764 160.338, 603.290 159.728 C 597.072 159.035, 561.149 151.150, 559.020 150.011 C 558.121 149.529, 551.393 137.968, 544.068 124.318 C 526.866 92.258, 526.060 90.939, 522.334 88.763 C 518.053 86.263, 510.496 85.708, 504.951 87.485 M 508.905 181.972 C 489.629 185.526, 486.052 211.553, 503.667 220.081 C 509.884 223.091, 518.417 222.368, 524.237 218.339 C 529.855 214.449, 533.419 206.709, 532.758 199.832 C 531.661 188.419, 520.256 179.879, 508.905 181.972 M 440.500 241.506 C 423.033 245.595, 399.813 254.275, 385.094 262.217 C 375.420 267.437, 361.551 275.671, 356.899 278.957 C 354.918 280.356, 351.093 283.049, 348.399 284.942 C 333.899 295.129, 315.918 311.658, 301.557 328 C 284.113 347.851, 271.694 366.536, 260.017 390.500 C 251.294 408.403, 246.530 421.219, 241.452 440.451 C 238.014 453.473, 237.359 458.443, 238.785 460.687 C 239.200 461.340, 246.068 468.540, 254.046 476.687 C 262.025 484.834, 269.425 493.300, 270.491 495.500 C 272.890 500.453, 273.735 513.604, 272.021 519.324 C 271.088 522.438, 267.117 527.121, 254.408 540.094 C 235.770 559.119, 236.681 557.078, 240.051 572.261 C 250.015 617.152, 269.710 655.933, 301.114 692.500 C 337.107 734.410, 387.538 766.810, 435.837 779.055 C 442.252 780.681, 450.425 782.257, 454 782.556 L 460.500 783.101 477 771.055 C 498.582 755.299, 502.974 753, 511.504 753 C 521.062 753, 521.553 753.253, 544.500 770.004 C 547.250 772.012, 552.357 775.757, 555.849 778.327 C 563.240 783.767, 564.378 783.900, 578.640 780.985 C 611.028 774.367, 645.594 758.730, 675.469 737.181 C 731.537 696.738, 770.403 638.246, 783.994 573.853 C 787.496 557.264, 788.307 559.210, 770.159 540.662 C 756.407 526.608, 754.083 523.765, 752.536 519.107 C 750.151 511.927, 750.792 501.246, 753.983 495 C 755.302 492.418, 762.614 484.079, 771.141 475.434 C 785.579 460.795, 786 460.248, 786 456.130 C 786 451.680, 783.013 439.951, 777.818 424 C 755.103 354.254, 699.773 291.396, 632.500 258.912 C 610.497 248.287, 580.334 238.952, 568.261 239.031 C 563.790 239.061, 562.585 239.736, 548.500 250.115 C 528.014 265.209, 523.296 268.197, 517.587 269.688 C 507.147 272.415, 500.991 269.718, 477.093 251.945 C 457.028 237.022, 458.210 237.360, 440.500 241.506 M 493.500 281.570 C 491.850 281.797, 486.450 282.476, 481.500 283.079 C 439.572 288.179, 394.809 308.353, 361.492 337.162 C 318.662 374.196, 294.074 420.054, 285.440 479 C 283.155 494.596, 283.123 525.272, 285.373 542 C 293.942 605.706, 326.160 660.603, 377.479 698.943 C 452.406 754.921, 559.417 757.695, 637 705.673 C 677.349 678.617, 707.094 641.962, 724.822 597.449 C 741.084 556.619, 745.331 507.408, 736.419 463.090 C 731.678 439.514, 723.835 418.538, 711.789 397.221 C 686.878 353.137, 642.942 315.333, 594.771 296.534 C 579.481 290.567, 560.983 285.544, 546.837 283.517 C 536.152 281.986, 500.036 280.667, 493.500 281.570 M 433.409 378.588 C 431.214 380.011, 428.312 382.791, 426.959 384.765 L 424.500 388.354 424.500 509.427 C 424.500 626.789, 424.559 630.619, 426.419 634.366 C 430.087 641.755, 439.680 646.221, 448.379 644.589 C 450.245 644.239, 460.710 638.154, 471.636 631.067 C 482.561 623.980, 506.350 608.609, 524.500 596.911 C 571.727 566.470, 589.923 554.706, 603 546.159 C 609.325 542.025, 620.843 534.500, 628.596 529.435 C 641.039 521.307, 642.886 519.743, 644.346 516.094 C 646.521 510.657, 646.432 507.525, 643.959 502.415 C 641.795 497.945, 639.911 496.557, 614.500 480.724 C 607.900 476.611, 585.850 462.775, 565.500 449.977 C 545.150 437.179, 515.450 418.529, 499.500 408.532 C 483.550 398.535, 466.574 387.818, 461.775 384.717 C 449.536 376.806, 447.731 376, 442.250 376 C 438.728 376, 436.308 376.708, 433.409 378.588 M 196.500 491.835 C 185.938 496.856, 182.245 508.079, 187.611 518.847 C 192.268 528.193, 203.304 532.407, 212.768 528.452 C 227.278 522.390, 229.255 502.610, 216.255 493.578 C 210.729 489.738, 202.447 489.007, 196.500 491.835 M 812.500 491.421 C 808.568 493.182, 803.619 498.176, 801.608 502.415 C 795.885 514.474, 806.324 530, 820.154 530 C 831.261 530, 840.110 520.991, 840.213 509.578 C 840.239 506.731, 839.564 503.074, 838.715 501.451 C 836.671 497.545, 831.191 492.383, 827.685 491.061 C 823.838 489.611, 816.136 489.794, 812.500 491.421 M 506.728 797.327 C 498.224 799.972, 492.066 808.119, 492.022 816.782 C 491.975 825.973, 498.457 834.064, 507.487 836.085 C 514.012 837.545, 518.389 836.785, 523.849 833.245 C 528.747 830.069, 533.005 822.526, 532.990 817.054 C 532.977 812.254, 528.997 804.017, 525.112 800.748 C 521.919 798.061, 516.213 795.950, 512.500 796.082 C 511.400 796.122, 508.803 796.682, 506.728 797.327" stroke="none" fill="#000000" fill-rule="evenodd"/>
</svg>